<svg width="48" height="48" viewBox="0 0 48 48" fill="none" xmlns="http://www.w3.org/2000/svg">
<g clip-path="url(#clip0_34_336)">
<path d="M23.9122 37.8951H24.8804C24.8804 37.8951 24.9357 34.6269 27.3701 32.3281L27.0935 32.0789C27.0935 32.0789 25.7103 33.339 24.7559 35.1393L24.6314 32.0789H24.1335L24.009 35.1393C23.0546 33.339 21.6714 32.0789 21.6714 32.0789L21.3948 32.3281C23.8292 34.6269 23.8845 37.8951 23.8845 37.8951" fill="#00803B"/>
<path d="M42.9862 19.1863L42.9308 18.9786C42.8617 18.7293 42.6404 18.5631 42.3776 18.5631H35.185C34.9361 18.5631 34.7148 18.7293 34.6318 18.9786L34.5626 19.214C34.535 19.3386 34.535 19.4632 34.5626 19.5879C35.2127 21.402 36.8864 22.6344 38.7536 22.6344C40.6209 22.6344 42.3222 21.402 42.9585 19.5602C43 19.4494 43 19.3109 42.9585 19.2001" fill="#00803B"/>
<path d="M32.9028 18.5493H25.7103C25.4613 18.5493 25.24 18.7155 25.157 18.9648L25.0879 19.2002C25.0602 19.3248 25.0602 19.4494 25.0879 19.5741C25.7241 21.3882 27.4116 22.6207 29.2789 22.6207C31.1462 22.6207 32.8475 21.3882 33.4838 19.5464L33.5114 19.491C33.5114 19.491 33.5529 19.3664 33.5806 19.311C33.6359 19.1309 33.5944 18.9371 33.4976 18.7986C33.3869 18.6463 33.221 18.5632 33.0412 18.5632H32.9028V18.5493Z" fill="#00803B"/>
<path d="M14.4236 19.5879C14.4651 19.4632 14.4651 19.3386 14.4236 19.214L14.3544 18.9786C14.2853 18.7293 14.064 18.5631 13.8012 18.5631H6.6363C6.38733 18.5631 6.16602 18.7293 6.08303 18.9786L6.02771 19.1863C6.00004 19.3109 6.00004 19.4355 6.02771 19.5463C6.66397 21.3881 8.35144 22.6206 10.2326 22.6206C12.1137 22.6206 13.7735 21.402 14.4236 19.574" fill="#00803B"/>
<path d="M23.3313 18.5492H16.1387C15.8898 18.5492 15.6685 18.7154 15.5855 18.9647L15.5301 19.1724C15.5025 19.297 15.5025 19.4217 15.5301 19.5325C16.1664 21.3743 17.8539 22.6067 19.735 22.6067C21.6161 22.6067 23.2759 21.3881 23.926 19.5602L23.9537 19.4909C23.9814 19.4217 24.009 19.3524 24.0367 19.2832C24.092 19.1032 24.0505 18.9093 23.9399 18.7708C23.8292 18.6185 23.6632 18.5354 23.4834 18.5354H23.3313V18.5492Z" fill="#00803B"/>
<path d="M24.3963 29.9325C24.8389 29.9325 25.2538 29.8217 25.6411 29.6555C25.7933 29.5447 25.9454 29.4616 26.1114 29.3786C26.8722 28.8385 27.3563 27.966 27.3563 26.969C27.3563 25.3349 26.0284 24.0055 24.3963 24.0055C22.7641 24.0055 21.4363 25.3349 21.4363 26.969C21.4363 27.966 21.9342 28.8385 22.6811 29.3786C22.8471 29.4616 23.0131 29.5447 23.1514 29.6555C23.5249 29.8355 23.9398 29.9325 24.3963 29.9325Z" fill="#E30613"/>
<path d="M18.4763 32.0651C18.4763 33.6991 19.8042 35.0285 21.4363 35.0285C23.0685 35.0285 24.341 33.7407 24.3963 32.1481C24.3963 32.1204 24.3963 32.0928 24.3963 32.0651C24.3963 32.0374 24.3963 32.0097 24.3963 31.982C24.3687 31.0264 23.8845 30.1817 23.1515 29.6555C22.9855 29.5724 22.8195 29.4893 22.6812 29.3785C22.3077 29.1985 21.8928 29.1016 21.4363 29.1016C19.8042 29.1016 18.4763 30.431 18.4763 32.0651Z" fill="#E30613"/>
<path d="M22.6812 29.3785C22.8333 29.4893 22.9855 29.5724 23.1514 29.6555C22.9993 29.5447 22.8471 29.4616 22.6812 29.3785Z" fill="#E30613"/>
<path d="M24.3962 31.982C24.3962 31.982 24.3962 32.0374 24.3962 32.0651C24.3962 32.0928 24.3962 32.1204 24.3962 32.1481C24.4377 33.7407 25.7379 35.0285 27.3562 35.0285C28.9746 35.0285 30.3162 33.6991 30.3162 32.0651C30.3162 30.431 28.9884 29.1016 27.3562 29.1016C26.9136 29.1016 26.4987 29.2123 26.1114 29.3785C25.9592 29.4893 25.8071 29.5724 25.6411 29.6555C24.908 30.1817 24.4239 31.0264 24.3962 31.982Z" fill="#E30613"/>
<path d="M26.1114 29.3785C25.9454 29.4478 25.7933 29.5447 25.6411 29.6555C25.8071 29.5863 25.9592 29.4893 26.1114 29.3785Z" fill="#E30613"/>
<path d="M35.849 7H13.2064C11.6157 7 10.191 8.03861 9.65159 9.58959L7.16187 16.8321H41.8935L39.3899 9.58959C38.8505 8.03861 37.4258 7 35.8351 7L35.849 7ZM10.3432 15.018L11.92 10.462C12.1136 9.9081 12.6254 9.5342 13.2064 9.5342H35.849C36.4299 9.5342 36.9417 9.9081 37.1353 10.462L38.7121 15.018H10.3432Z" fill="#E30613"/>
<path d="M40.6624 35.8595V24.0055C39.8878 24.3102 39.1962 24.4071 38.2557 24.3102V35.8595C38.2557 36.2887 38.0897 36.6765 37.7992 36.9812C37.4949 37.2858 37.0938 37.4658 36.6788 37.4658H12.3764C11.505 37.4658 10.7996 36.7457 10.7996 35.8595V24.3102C10.5644 24.3378 10.3708 24.3517 10.1772 24.3517C9.58239 24.3517 8.97379 24.2409 8.37903 24.0055V35.8595C8.37903 37.8536 9.8037 40 13.7873 40H38.0897C38.8089 40 40.6624 38.1582 40.6624 35.8595Z" fill="#E30613"/>
</g>
<defs>
<clipPath id="clip0_34_336">
<rect width="37" height="33" fill="white" transform="translate(6 7)"/>
</clipPath>
</defs>
</svg>
