<svg width="48" height="48" viewBox="0 0 48 48" fill="none" xmlns="http://www.w3.org/2000/svg">
<g clip-path="url(#clip0_43_197)">
<path d="M32.1973 11.063C32.1973 14.4038 29.5001 17.1259 26.1805 17.1259C22.8609 17.1259 20.1637 14.4175 20.1637 11.063C20.1637 7.70839 22.8609 5 26.1805 5C29.5001 5 32.1973 7.70839 32.1973 11.063Z" fill="#E30613"/>
<path d="M26.1944 21.4703C26.1944 24.8112 23.4972 27.5333 20.1776 27.5333C16.858 27.5333 14.1608 24.8249 14.1608 21.4703C14.1608 18.1158 16.858 15.4211 20.1776 15.4211C23.4972 15.4211 26.1944 18.1295 26.1944 21.4703Z" fill="#E30613"/>
<path d="M38.2004 21.4703C38.2004 24.8112 35.5032 27.5333 32.1836 27.5333C28.8639 27.5333 26.1667 24.8249 26.1667 21.4703C26.1667 18.1158 28.8639 15.4211 32.1836 15.4211C35.5032 15.4211 38.2004 18.1295 38.2004 21.4703Z" fill="#E30613"/>
<path d="M15.0184 29.9667C15.9313 29.8979 16.7473 29.7467 17.4666 29.513L15.046 29.1143C14.0363 28.9493 12.8329 28.7293 11.6572 28.4819C10.6613 28.2756 9.48565 28.0282 8.30994 27.712L7.97798 27.6157C7.32789 27.437 6.65013 27.2445 5.98621 26.9558C6.13836 27.1345 6.31817 27.3133 6.49798 27.4782C6.95443 27.8632 7.46621 28.2206 8.00565 28.5094C9.0292 29.0593 10.1772 29.458 11.4221 29.7192C12.584 29.9667 13.7873 30.0492 14.9907 29.9667H15.0184Z" fill="#00803B"/>
<path d="M16.7334 33.1975C18.2273 33.0738 19.6796 32.7713 21.049 32.2764C22.114 31.8777 23.0269 31.424 23.8015 30.8878C22.7088 31.1215 21.7682 31.314 20.8553 31.4515C19.486 31.6715 18.1166 31.8364 16.6504 31.9602C15.2811 32.0702 13.8703 32.1252 12.4871 32.1252H12.2796C11.2975 32.1252 10.3293 32.0839 9.44409 32.0427C10.2878 32.4414 11.2561 32.7576 12.3626 32.9775C13.7873 33.2525 15.2534 33.335 16.7473 33.2113L16.7334 33.1975Z" fill="#00803B"/>
<path d="M30.0119 30.2417C29.8044 30.3517 29.597 30.4617 29.3895 30.5717C28.3106 31.1491 27.3009 31.6853 26.2497 32.1939C24.6037 32.9913 23.0269 33.6512 21.4086 34.1874C19.7902 34.7374 18.1443 35.1773 16.3876 35.521C15.1151 35.7822 13.8287 35.9609 12.4732 36.1672C12.4041 36.1672 12.3349 36.1947 12.2657 36.1947C13.5521 36.6071 14.9768 36.8408 16.4844 36.8546C18.3102 36.8821 20.1637 36.5796 21.9342 35.9884C23.6908 35.3973 25.3644 34.5036 26.8721 33.3625C28.1031 32.4139 29.1543 31.3691 29.9981 30.2417H30.0119Z" fill="#00803B"/>
<path d="M35.4756 28.8393C34.5627 29.568 33.7328 30.3241 32.9029 31.0665L32.1836 31.7264C30.6759 33.1012 29.5002 34.0911 28.3799 34.9435C27.2318 35.8234 25.9731 36.6758 24.2857 37.7206C24.009 37.8994 23.7324 38.0643 23.4558 38.2431C22.529 38.8205 21.5885 39.4117 20.6617 40.0853C22.0726 40.0716 23.4834 39.8516 24.9496 39.4117C26.6786 38.8892 28.3384 38.0506 29.7354 36.9782C31.1462 35.9059 32.4049 34.5448 33.4561 32.95C34.3552 31.5752 35.0191 30.2279 35.4756 28.8256V28.8393Z" fill="#00803B"/>
<path d="M39.7496 28.6332C38.5324 30.3792 37.2045 32.084 35.6968 33.83C34.452 35.2873 33.0273 36.8271 31.2153 38.6968C30.8142 39.123 30.3993 39.5355 29.9982 39.9617C29.0576 40.9241 28.0894 41.9277 27.1488 42.9863C28.9193 42.5051 30.6897 41.7077 32.5294 40.5529C34.5211 39.288 36.3054 37.7345 37.8546 35.9472C39.4729 34.0775 40.7454 32.0015 41.6445 29.788C42.4882 27.6845 42.9585 25.6223 43.0139 23.6426L42.8202 23.945C41.7828 25.5811 40.8008 27.1346 39.7496 28.6194V28.6332Z" fill="#00803B"/>
</g>
<defs>
<clipPath id="clip0_43_197">
<rect width="37" height="38" fill="white" transform="translate(6 5)"/>
</clipPath>
</defs>
</svg>
