<svg width="48" height="48" viewBox="0 0 48 48" fill="none" xmlns="http://www.w3.org/2000/svg">
<g clip-path="url(#clip0_976_555)">
<path d="M29.8373 9.35339C29.9349 16.4919 19.065 16.4919 19.1648 9.35339C19.0629 2.217 29.937 2.217 29.8373 9.35339Z" fill="#ED1C24"/>
<path d="M24.5168 18.807C24.6187 25.9434 13.7445 25.9434 13.8464 18.807C13.7488 11.6706 24.6187 11.6706 24.5168 18.807Z" fill="#ED1C24"/>
<path d="M35.1535 18.807C35.2533 25.9434 24.3812 25.9434 24.4831 18.807C24.3812 11.6706 35.2554 11.6706 35.1535 18.807Z" fill="#ED1C24"/>
<path d="M15.209 30.8008C14.7165 30.6396 14.3088 30.9131 14.1008 31.5449C13.8927 32.1788 14.0392 32.6389 14.5466 32.8064C14.9861 32.9463 15.2833 32.8149 15.3958 32.4905L14.7419 32.2764L14.9585 31.6128L16.5104 32.1195L16.3533 32.6008C16.0391 33.5612 15.1963 33.911 14.2749 33.6099C13.2494 33.275 12.7803 32.3591 13.1433 31.2396C13.5254 30.082 14.5042 29.6728 15.4553 29.9824C16.2854 30.2538 16.7588 30.964 16.606 31.6955L15.6633 31.388C15.6824 31.1145 15.519 30.8983 15.209 30.7965V30.8008Z" fill="#038948"/>
<path d="M16.8343 32.8763C16.9999 32.0368 17.6347 31.5682 18.5179 31.7378C19.401 31.9074 19.8172 32.5774 19.6516 33.417C19.4923 34.2587 18.8554 34.7251 17.9722 34.5555C17.0891 34.3859 16.6729 33.7159 16.8322 32.8742L16.8343 32.8763ZM18.1145 33.8537C18.382 33.9025 18.5985 33.6608 18.6792 33.2262C18.7663 32.7894 18.6559 32.482 18.3884 32.4332C18.1081 32.376 17.8958 32.6198 17.8088 33.0566C17.7281 33.4891 17.8364 33.7965 18.1145 33.8516V33.8537Z" fill="#038948"/>
<path d="M20.0856 33.4763C20.1641 32.624 20.7501 32.094 21.6439 32.1746C22.5377 32.253 23.0217 32.8784 22.9432 33.7307C22.871 34.583 22.285 35.1131 21.3891 35.0346C20.4953 34.9562 20.0113 34.3307 20.0856 33.4784V33.4763ZM21.4592 34.318C21.7309 34.3392 21.922 34.0763 21.9581 33.6375C22.0006 33.1943 21.8583 32.8997 21.5866 32.8784C21.3042 32.8509 21.1153 33.1138 21.0728 33.559C21.0367 33.9979 21.1747 34.2905 21.4592 34.318Z" fill="#038948"/>
<path d="M23.3888 33.7414C23.3782 32.7407 23.9111 32.306 24.4673 32.3018C24.8898 32.2976 25.1488 32.5393 25.2571 32.8106H25.272L25.2571 31.4007L26.2273 31.3901L26.2655 35.1004L25.3059 35.111L25.3017 34.6552H25.2762C25.1658 34.9329 24.9047 35.1534 24.5055 35.1555C23.9026 35.164 23.3973 34.6997 23.3888 33.7414ZM24.8474 34.4092C25.1382 34.4029 25.308 34.1378 25.308 33.7181C25.3017 33.2961 25.1276 33.0417 24.8346 33.046C24.548 33.046 24.3824 33.3067 24.3909 33.7265C24.3909 34.1527 24.5629 34.4092 24.8495 34.4092H24.8474Z" fill="#038948"/>
<path d="M27.7129 31.2819L29.2754 31.0487C30.0971 30.9258 30.7127 31.3604 30.8274 32.1321C30.9441 32.9166 30.4665 33.4932 29.6279 33.6162L29.0589 33.701L29.2245 34.8056L28.2606 34.9498L27.7129 31.2819ZM29.3243 32.8954C29.6873 32.8381 29.8699 32.6049 29.8189 32.2826C29.7744 31.9625 29.5323 31.7992 29.1693 31.8523L28.7935 31.9074L28.9506 32.9505L29.3264 32.8954H29.3243Z" fill="#038948"/>
<path d="M31.3374 33.0693C31.123 32.2339 31.5115 31.5407 32.3437 31.3265C33.1441 31.1187 33.8065 31.4961 34.0337 32.3611L34.091 32.5838L32.3225 33.0417L32.331 33.0756C32.4032 33.3555 32.6303 33.506 32.9318 33.4276C33.1377 33.3746 33.2779 33.2452 33.297 33.0735L34.1568 32.8509C34.2099 33.4297 33.8235 33.9067 33.0868 34.0975C32.227 34.3202 31.5688 33.9385 31.3395 33.0672L31.3374 33.0693ZM33.0847 32.2827C33.0189 32.041 32.7853 31.918 32.5348 31.9859C32.2843 32.0474 32.1293 32.27 32.1845 32.5159L33.0847 32.2827Z" fill="#038948"/>
<path d="M35.8316 30.9724L35.373 31.1399L35.7806 32.2572C35.8252 32.3802 35.9038 32.4056 36.0333 32.3675C36.0991 32.3463 36.2307 32.289 36.3326 32.2424L36.581 32.9208C36.5025 32.9675 36.3623 33.0353 36.1585 33.1116C35.5237 33.3406 35.0949 33.2261 34.9038 32.6791L34.4622 31.4707L34.1247 31.5936L33.8848 30.9343L34.2223 30.8113L33.993 30.1858L34.9038 29.8551L35.1331 30.4805L35.5917 30.3131L35.8316 30.9724Z" fill="#038948"/>
<path d="M24.5002 40C17.4412 40 10.7324 38.2827 5.60951 35.164L5.31653 34.9859C4.0236 34.1972 3.61173 32.5075 4.4015 31.2142L4.75817 30.629C5.14032 30.0036 5.74326 29.5647 6.4566 29.3908C7.16993 29.2191 7.90663 29.3336 8.53505 29.7152L8.64969 29.7852L12.1272 24.4191C12.5922 23.7025 13.5348 23.4693 14.2736 23.8891C16.9635 25.4156 20.6915 26.2912 24.5002 26.2912C28.309 26.2912 32.037 25.4156 34.7269 23.8891C35.4657 23.4693 36.4083 23.7025 36.8733 24.4191L40.3508 29.7852L40.4655 29.7152C41.0917 29.3336 41.8306 29.2191 42.5418 29.3908C43.2551 29.5626 43.8581 30.0036 44.2402 30.629L44.5969 31.2142C45.3845 32.5053 44.9748 34.1972 43.6818 34.9859L43.3889 35.164C38.266 38.2827 31.5572 40 24.4981 40H24.5002ZM7.10624 30.8559C7.01071 30.8559 6.91517 30.8665 6.82176 30.8898C6.50967 30.9661 6.24642 31.1569 6.0787 31.4304L5.72203 32.0156C5.37597 32.5795 5.55643 33.3216 6.12328 33.6651L6.41626 33.8431C11.2992 36.8177 17.7214 38.4544 24.5024 38.4544C31.2833 38.4544 37.7055 36.8177 42.5885 33.8431L42.8815 33.6651C43.4462 33.3195 43.6266 32.5795 43.2827 32.0156L42.926 31.4304C42.7583 31.1569 42.4951 30.964 42.183 30.8898C41.8709 30.8135 41.5482 30.8643 41.2743 31.0318L40.9813 31.2099C40.8646 31.282 40.7457 31.3499 40.6247 31.4177L39.8583 31.8587L35.5804 25.2566C35.5612 25.2269 35.523 25.2142 35.4954 25.2311C32.538 26.9103 28.6338 27.8347 24.5045 27.8347C20.3752 27.8347 16.4731 26.9103 13.5136 25.2311C13.486 25.2163 13.4477 25.2269 13.4286 25.2566L9.15072 31.8587L8.38856 31.4198C8.26754 31.3499 8.14653 31.282 8.02764 31.2099L7.73466 31.0318C7.54359 30.9152 7.32916 30.8559 7.11049 30.8559H7.10624Z" fill="#038948"/>
</g>
<defs>
<clipPath id="clip0_976_555">
<rect width="41" height="36" fill="white" transform="translate(4 4)"/>
</clipPath>
</defs>
</svg>
