<svg width="48" height="48" viewBox="0 0 48 48" fill="none" xmlns="http://www.w3.org/2000/svg">
<g clip-path="url(#clip0_34_377)">
<path d="M19.9286 40C20.468 40 20.9936 39.7192 21.2979 39.27L21.9757 38.2591C23.7462 36.4761 24.2441 36.4059 24.4239 36.3919H24.5069H24.5899C24.7836 36.42 25.3092 36.4761 27.0658 38.2591L27.9095 39.2419C28.2415 39.635 28.7671 39.8456 29.2512 39.8175C29.763 39.7894 30.2333 39.5227 30.5237 39.0874L31.1738 38.1609C32.3772 37.0237 33.954 36.3919 35.6 36.3919C37.329 36.3919 38.9611 37.0798 40.1922 38.3153C40.8422 38.9611 41.8796 38.9751 42.5297 38.3153C43.1798 37.6695 43.1798 36.6025 42.5297 35.9426C40.6763 34.0614 38.2142 33.0365 35.6 33.0365C33.3731 33.0365 31.2707 33.7806 29.5279 35.1705L29.0714 35.5355L28.6426 35.1284C27.0381 33.6262 25.8486 33.0225 24.5207 33.0225C23.1929 33.0225 21.9895 33.6402 20.385 35.1424L19.9563 35.5495L19.4998 35.1845C17.757 33.7806 15.6546 33.0365 13.4138 33.0365C10.7996 33.0365 8.33757 34.0754 6.48411 35.9426C6.17981 36.2655 6 36.6867 6 37.1219C6 37.5572 6.16598 37.9924 6.48411 38.3012C7.13421 38.9471 8.17159 38.9611 8.82168 38.3012C10.0527 37.0517 11.671 36.3779 13.4138 36.3779C15.046 36.3779 16.609 36.9956 17.8123 38.1328L17.923 38.2732L18.5454 39.2419C18.8497 39.7192 19.3615 40 19.9148 40.014" fill="#00803B"/>
<path d="M24.6314 18.0285C25.5166 18.0285 26.3465 17.846 27.1211 17.5231C27.4808 17.2844 27.8542 17.0598 28.2553 16.8913C29.9428 15.712 31.0632 13.7465 31.0632 11.5142C31.0632 7.92018 28.1862 5 24.6452 5C21.1043 5 18.2273 7.92018 18.2273 11.5142C18.2273 13.7044 19.3062 15.6418 20.9383 16.8211C21.1873 16.9475 21.4363 17.0878 21.6714 17.2563C22.5705 17.7337 23.5664 18.0285 24.6452 18.0285H24.6314Z" fill="#E30613"/>
<path d="M11.5327 22.5632C11.5327 26.1573 14.4097 29.0774 17.9507 29.0774C21.4916 29.0774 24.092 26.3959 24.3271 23.0124C24.3271 22.9703 24.3271 22.9423 24.3271 22.9001C24.3271 22.7457 24.3548 22.6053 24.3686 22.4509C24.3271 20.3029 23.2759 18.4216 21.6714 17.2563C21.4224 17.13 21.1735 16.9896 20.9383 16.8211C20.0393 16.3438 19.0434 16.049 17.9645 16.049C14.4236 16.049 11.5465 18.9691 11.5465 22.5632H11.5327Z" fill="#E30613"/>
<path d="M20.9244 16.821C21.1596 16.9895 21.3947 17.1159 21.6575 17.2563C21.4224 17.0878 21.1734 16.9614 20.9244 16.821Z" fill="#E30613"/>
<path d="M24.3547 22.4508C24.3547 22.4508 24.3547 22.521 24.3547 22.5632C24.3547 22.7176 24.3271 22.858 24.3132 23.0124C24.3686 26.5644 27.2179 29.4143 30.7173 29.4143C34.2168 29.4143 37.1353 26.4942 37.1353 22.9001C37.1353 19.306 34.2583 16.3859 30.7173 16.3859C29.8321 16.3859 29.0022 16.5684 28.2276 16.8913C27.868 17.1299 27.4945 17.3546 27.0934 17.523C25.5166 18.6181 24.4792 20.4011 24.3409 22.4508H24.3547Z" fill="#E30613"/>
<path d="M28.2553 16.8912C27.8542 17.0597 27.4807 17.2703 27.1211 17.523C27.5222 17.3545 27.8957 17.1439 28.2553 16.8912Z" fill="#E30613"/>
<path d="M24.3547 22.4508C24.3547 22.6052 24.3132 22.7456 24.3132 22.9001C24.3132 22.9422 24.3132 22.9703 24.3132 23.0124C24.3132 22.8579 24.3547 22.7176 24.3547 22.5631C24.3547 22.521 24.3547 22.4929 24.3547 22.4508Z" fill="#E30613"/>
</g>
<defs>
<clipPath id="clip0_34_377">
<rect width="37" height="35" fill="white" transform="translate(6 5)"/>
</clipPath>
</defs>
</svg>
