<svg width="48" height="48" viewBox="0 0 48 48" fill="none" xmlns="http://www.w3.org/2000/svg">
<g clip-path="url(#clip0_24_222)">
<path d="M8.74847 17.0985C8.92828 17.1684 8.98361 17.2522 9.0251 17.4338C9.0666 17.6294 9.0251 17.9507 8.91445 18.2441C8.62398 18.9287 7.96006 19.2779 7.06099 18.8867C6.17576 18.4956 6.05127 17.7831 6.34174 17.1125C6.45239 16.861 6.63221 16.6375 6.77053 16.5537C7.03333 16.372 7.40679 16.7772 7.10249 17.0147C7.0195 17.0845 6.92267 17.1823 6.88118 17.2941C6.72903 17.6573 6.75669 18.0206 7.30996 18.2581C7.87707 18.5095 8.22286 18.3279 8.38884 17.9368C8.43034 17.8529 8.44417 17.7272 8.43034 17.6573L8.13987 17.5316C8.05688 17.4897 8.02922 17.5037 7.98772 17.6015L7.91856 17.7551C7.79408 18.0345 7.2823 17.811 7.40679 17.5316L7.6281 17.0007C7.72492 16.7772 7.8494 16.7353 8.07071 16.8331L8.72081 17.1265L8.74847 17.0985Z" fill="#00803B"/>
<path d="M7.33761 15.4919C7.18546 15.3941 7.19929 15.1985 7.28228 15.0728C7.36527 14.9331 7.53125 14.8353 7.6834 14.9331L9.60602 16.1485C9.75817 16.2463 9.74433 16.4559 9.66134 16.5956C9.57835 16.7353 9.41237 16.8191 9.24639 16.7213L7.32377 15.5059L7.33761 15.4919Z" fill="#00803B"/>
<path d="M9.03893 12.8655C8.81762 12.5162 9.37089 12.125 9.5922 12.4883L10.7402 14.3743C11.0169 14.8353 10.6572 15.3103 10.1593 15.1427L8.08453 14.4721C7.64192 14.3324 7.91855 13.6618 8.31967 13.8015L10.0625 14.4302L9.02509 12.8655H9.03893Z" fill="#00803B"/>
<path d="M9.7996 11.8735C9.67512 11.7478 9.71661 11.5662 9.82727 11.4544C9.93792 11.3287 10.1177 11.2728 10.2561 11.3985L11.902 12.9772C12.0404 13.1029 11.985 13.2985 11.8744 13.4242C11.7637 13.536 11.5839 13.5919 11.4456 13.4662L9.7996 11.8875V11.8735Z" fill="#00803B"/>
<path d="M11.5839 10.7419L12.5245 11.9713C12.6351 12.125 12.566 12.2926 12.4415 12.3904C12.317 12.4882 12.1372 12.5022 12.0265 12.3625L10.7125 10.6441C10.588 10.4765 10.6157 10.239 10.7955 10.0993C11.0306 9.91764 11.2381 9.91764 11.5009 10.0713L12.7873 10.7978L11.8605 9.58235C11.7499 9.44264 11.8329 9.275 11.9574 9.16323C12.0818 9.06544 12.2755 9.02353 12.3861 9.16323L13.7002 10.8816C13.8246 11.0493 13.7832 11.3007 13.5895 11.4404C13.3544 11.6221 13.1607 11.6081 12.8564 11.4404L11.5839 10.7279V10.7419Z" fill="#00803B"/>
<path d="M15.9824 9.23307C16.0792 9.40072 16.0792 9.51248 15.9962 9.66616C15.9132 9.84778 15.6919 10.0853 15.4291 10.239C14.7929 10.6022 14.0459 10.4765 13.5757 9.61028C13.1054 8.75807 13.4373 8.11542 14.0736 7.76616C14.3087 7.62645 14.5854 7.57057 14.7514 7.58454C15.0695 7.59851 15.111 8.14336 14.7514 8.15733C14.6545 8.15733 14.5024 8.18528 14.4056 8.24116C14.0736 8.43675 13.88 8.7441 14.1704 9.26101C14.4747 9.80586 14.8482 9.87572 15.2216 9.66616C15.3046 9.61028 15.3876 9.52645 15.4153 9.47057L15.2631 9.19116C15.2216 9.10733 15.194 9.10733 15.111 9.14925L14.9727 9.23307C14.7099 9.38675 14.4332 8.88381 14.696 8.7441L15.194 8.46469C15.4015 8.35292 15.5398 8.39483 15.6504 8.60439L15.9962 9.23307H15.9824Z" fill="#00803B"/>
<path d="M16.674 6.60661C16.6187 6.43896 16.757 6.29926 16.8953 6.25734C17.0475 6.20146 17.2411 6.24337 17.2965 6.41102L17.8359 8.11543C17.8636 8.21323 17.9051 8.2272 18.0019 8.19926L18.7211 7.96176C18.8871 7.90587 19.0116 8.03161 19.0531 8.17131C19.0946 8.29705 19.0531 8.4647 18.9009 8.52058L17.8912 8.8419C17.5178 8.96764 17.3794 8.88381 17.255 8.50661L16.6464 6.60661H16.674Z" fill="#00803B"/>
<path d="M19.1637 5.99192C19.1084 5.64266 19.219 5.51692 19.5925 5.44707L20.5884 5.27942C20.782 5.25148 20.8927 5.37722 20.9203 5.53089C20.948 5.6706 20.8788 5.83825 20.6852 5.86619L19.9659 5.99192C19.8691 6.00589 19.8414 6.04781 19.8553 6.1456L19.9106 6.43898L20.6575 6.31325C20.8235 6.28531 20.9203 6.42501 20.948 6.56472C20.9756 6.70442 20.9203 6.8581 20.7543 6.88604L20.0074 7.01178L20.0766 7.43089C20.0904 7.54266 20.1319 7.55663 20.2287 7.54266L20.9756 7.41692C21.1416 7.38898 21.2523 7.52869 21.2799 7.66839C21.3076 7.8081 21.2523 7.96178 21.0725 7.98972L20.0213 8.17133C19.6478 8.24119 19.5233 8.14339 19.468 7.78016L19.1775 6.00589L19.1637 5.99192Z" fill="#00803B"/>
<path d="M22.4004 5.26544C22.4695 5.06985 22.6079 5 22.7738 5C22.9398 5 23.092 5.06985 23.175 5.26544L24.0464 7.40294C24.0464 7.40294 24.0602 7.48676 24.0602 7.51471C24.0602 7.68235 23.8666 7.80809 23.6729 7.80809C23.5208 7.80809 23.3963 7.75221 23.3548 7.59853L23.2165 7.20735H22.3727L22.2621 7.6125C22.2206 7.78015 22.0823 7.83603 21.9578 7.85C21.7918 7.85 21.612 7.73824 21.5981 7.57059C21.5981 7.52868 21.5981 7.50074 21.612 7.45882L22.3866 5.27941L22.4004 5.26544ZM22.5525 6.6625H23.0366L22.7877 5.89412L22.5664 6.6625H22.5525Z" fill="#00803B"/>
<path d="M24.7379 5.489C24.7794 5.13973 24.9316 5.04194 25.2912 5.08385L25.7476 5.13973C26.5084 5.23753 26.8957 5.74047 26.7989 6.60665C26.702 7.45885 26.2871 7.97576 25.4848 7.87797L24.9731 7.82209C24.5996 7.78017 24.4889 7.64047 24.5304 7.26326L24.7379 5.489V5.489ZM25.4987 7.30517C25.886 7.34709 26.0934 7.09562 26.1626 6.53679C26.2179 6.03385 26.0381 5.75444 25.6508 5.71253H25.4987C25.4157 5.68459 25.3742 5.71253 25.3742 5.81032L25.2082 7.13753C25.2082 7.23532 25.222 7.26326 25.305 7.27723L25.4987 7.30517V7.30517Z" fill="#00803B"/>
<path d="M27.5043 5.99189C27.6011 5.64263 27.7532 5.58675 28.1129 5.68454L29.0949 5.94998C29.2747 6.00586 29.3301 6.17351 29.2886 6.31322C29.2471 6.45292 29.1226 6.57866 28.9428 6.52277L28.2374 6.32719C28.1405 6.29925 28.099 6.32719 28.0714 6.42498L28.0022 6.70439L28.7353 6.89998C28.9013 6.94189 28.9289 7.10954 28.9013 7.24925C28.8598 7.37498 28.7491 7.50072 28.597 7.4588L27.8639 7.26322L27.7532 7.68233C27.7256 7.78013 27.7532 7.82204 27.8501 7.84998L28.5831 8.04557C28.7491 8.08748 28.7906 8.2691 28.763 8.39483C28.7215 8.53454 28.6108 8.6463 28.4448 8.60439L27.4074 8.32498C27.034 8.22719 26.9648 8.08748 27.0617 7.73822L27.5319 5.99189H27.5043Z" fill="#00803B"/>
<path d="M29.9664 6.76032C30.0909 6.46693 30.2845 6.41105 30.5888 6.55076L31.0176 6.73237C31.5571 6.96987 31.8199 7.40296 31.5986 7.93385C31.4602 8.25517 31.2251 8.42282 30.9485 8.46473L31.1006 9.27502C31.1836 9.68017 30.5058 9.79193 30.4644 9.40076L30.3399 8.36693L30.0632 8.2412L29.7589 8.9537C29.6898 9.12135 29.4961 9.13532 29.344 9.07943C29.2057 9.00958 29.0812 8.86987 29.1642 8.68826L29.9802 6.77429L29.9664 6.76032ZM30.2707 7.71032L30.492 7.80811C30.7548 7.93385 30.907 7.87796 30.99 7.68237C31.073 7.50076 31.0038 7.34708 30.7272 7.23532L30.6027 7.17943C30.6027 7.17943 30.492 7.15149 30.4644 7.22135L30.2569 7.71032H30.2707Z" fill="#00803B"/>
<path d="M32.9126 10.0853C32.9817 9.97352 32.9679 9.86176 32.8019 9.66617L32.5668 9.40073C32.3316 9.13528 32.2072 8.79999 32.4423 8.42278C32.6774 8.04558 33.1892 7.90587 33.7425 8.25514C34.0745 8.4647 34.2266 8.71617 34.2819 8.85587C34.4064 9.20514 33.9223 9.45661 33.7563 9.10734C33.701 8.99558 33.6042 8.82793 33.452 8.74411C33.286 8.63234 33.1062 8.64631 33.0371 8.74411C32.9817 8.82793 32.9679 8.92573 33.1062 9.0794L33.3275 9.33087C33.6042 9.63823 33.7563 10.0015 33.5212 10.3787C33.2445 10.8118 32.7051 10.9515 32.1518 10.6022C31.8475 10.4066 31.6401 10.1412 31.5709 9.8897C31.4741 9.48455 31.9997 9.30293 32.1518 9.68014C32.2072 9.81984 32.3178 9.97352 32.47 10.0713C32.7051 10.225 32.8434 10.1551 32.9126 10.0573V10.0853Z" fill="#00803B"/>
<path d="M37.0344 11.5243C37.1036 11.8595 36.6057 12.0272 36.4812 11.664C36.4535 11.5662 36.3705 11.4265 36.2875 11.3426C36.0247 11.0912 35.6651 11.0213 35.264 11.4404C34.849 11.8735 34.8905 12.2787 35.181 12.5581C35.2778 12.6559 35.43 12.7397 35.5544 12.7676C35.8726 12.8515 35.7896 13.3823 35.4023 13.3404C35.264 13.3265 34.9735 13.2007 34.7522 12.9912C34.1436 12.4044 34.1021 11.6779 34.766 10.9794C35.43 10.2809 36.1354 10.4206 36.6333 10.9095C36.8408 11.1051 36.9791 11.3566 37.0206 11.5243H37.0344Z" fill="#00803B"/>
<path d="M37.4632 12.1949C37.6015 12.0831 37.7813 12.1529 37.8781 12.2647C37.975 12.3904 38.0303 12.5721 37.892 12.6978L36.5503 13.8713C36.4673 13.9412 36.4811 13.9831 36.5503 14.0669L37.0482 14.6537C37.1589 14.7794 37.1036 14.9471 36.9929 15.0449C36.8961 15.1287 36.7301 15.1706 36.6194 15.0449L35.9279 14.2346C35.6651 13.9272 35.6789 13.7735 35.9832 13.5221L37.4908 12.2228L37.4632 12.1949Z" fill="#00803B"/>
<path d="M37.6707 14.8632L38.874 14.1088C39.0262 14.011 39.1922 14.1088 39.289 14.2625C39.372 14.4022 39.3997 14.5978 39.2337 14.6956L38.141 15.3941C37.6707 15.6875 37.6983 15.8831 37.8367 16.0926C37.975 16.3022 38.1548 16.4419 38.5974 16.1485L39.704 15.45C39.8561 15.3522 40.0083 15.45 40.1051 15.5897C40.1881 15.7294 40.2019 15.911 40.0498 16.0088L38.8602 16.7632C38.1963 17.1823 37.6707 16.9867 37.3111 16.4139C36.9514 15.8411 37.0206 15.2823 37.6707 14.8772V14.8632Z" fill="#00803B"/>
<path d="M39.953 16.9169C40.2711 16.7772 40.4232 16.875 40.5616 17.1963L40.7967 17.7412C41.018 18.2581 40.9073 18.6493 40.5201 18.8169C40.3126 18.9147 40.0359 18.9427 39.8423 18.7052C39.8976 19.0265 39.7731 19.3059 39.4412 19.4456C39.0124 19.6272 38.5974 19.4875 38.3623 18.9566L38.058 18.2581C37.9197 17.9368 37.975 17.7831 38.307 17.6434L39.9668 16.9169H39.953ZM38.8049 18.6074C38.8879 18.789 39.0262 18.8728 39.206 18.8029C39.3997 18.7191 39.4273 18.5515 39.3582 18.3838L39.1922 17.9787L38.7773 18.1603C38.6666 18.2162 38.6666 18.2302 38.7081 18.3419L38.8187 18.6074H38.8049ZM39.6487 17.7691L39.8008 18.1184C39.8561 18.2581 39.9806 18.3559 40.1466 18.286C40.2987 18.2162 40.3541 18.1044 40.2711 17.9088L40.1743 17.6853C40.1328 17.5875 40.0913 17.5875 40.0083 17.6154L39.6487 17.7691V17.7691Z" fill="#00803B"/>
<path d="M40.3125 21.2199C40.271 21.0103 40.3955 20.7868 40.6168 20.7449C40.8243 20.703 41.0456 20.8427 41.0871 21.0522C41.1286 21.2618 40.9902 21.4713 40.7828 21.5272C40.5753 21.5691 40.354 21.4294 40.3125 21.2199Z" fill="#00803B"/>
<path d="M22.5387 41.4353H24.4752C24.4752 41.4353 24.5858 34.6037 29.4684 29.7978L28.9152 29.2809C28.9152 29.2809 26.1488 31.9073 24.24 35.6654L23.9911 29.2669H22.9952L22.7462 35.6654C20.8512 31.9073 18.0849 29.2809 18.0849 29.2809L17.5316 29.7978C22.4142 34.6037 22.5249 41.4353 22.5249 41.4353" fill="#00803B"/>
<path d="M29.4408 18.6213C29.4408 22.0441 26.7851 24.8103 23.507 24.8103C20.2288 24.8103 17.5731 22.0441 17.5731 18.6213C17.5731 15.1985 20.2288 12.4324 23.507 12.4324C26.7851 12.4324 29.4408 15.1985 29.4408 18.6213Z" fill="#E30613"/>
<path d="M23.5207 29.2669C23.5207 32.6897 20.865 35.4559 17.5869 35.4559C14.3088 35.4559 11.6531 32.6897 11.6531 29.2669C11.6531 25.8441 14.3088 23.0779 17.5869 23.0779C20.865 23.0779 23.5207 25.8441 23.5207 29.2669Z" fill="#E30613"/>
<path d="M35.3607 29.2669C35.3607 32.6897 32.705 35.4559 29.4269 35.4559C26.1487 35.4559 23.493 32.6897 23.493 29.2669C23.493 25.8441 26.1487 23.0779 29.4269 23.0779C32.705 23.0779 35.3607 25.8441 35.3607 29.2669Z" fill="#E30613"/>
<path d="M23.5069 43C13.2991 43 5 34.4779 5 24.014C5 23.4272 5.47028 22.9522 6.05121 22.9522C6.63215 22.9522 7.10243 23.4272 7.10243 24.014C7.10243 33.3184 14.4609 40.8765 23.5069 40.8765C32.5529 40.8765 39.9114 33.3044 39.9114 24.014C39.9114 23.4272 40.3817 22.9522 40.9626 22.9522C41.5436 22.9522 42.0138 23.4272 42.0138 24.014C42.0138 34.4919 33.7148 43 23.5069 43Z" fill="#E30613"/>
<path d="M5.96825 21.2478C5.92675 21.0383 6.05124 20.8147 6.27255 20.7728C6.48002 20.7309 6.6875 20.8706 6.74283 21.0802C6.78432 21.2897 6.65984 21.5133 6.43853 21.5552C6.23105 21.5971 6.00974 21.4574 5.96825 21.2478Z" fill="#00803B"/>
</g>
<defs>
<clipPath id="clip0_24_222">
<rect width="37" height="38" fill="white" transform="translate(5 5)"/>
</clipPath>
</defs>
</svg>
