<svg width="48" height="48" viewBox="0 0 48 48" fill="none" xmlns="http://www.w3.org/2000/svg">
<g clip-path="url(#clip0_34_354)">
<path d="M32.0827 32.4673H32.9541C32.9541 32.4673 33.0094 29.548 35.181 27.4865L34.932 27.2652C34.932 27.2652 33.6872 28.3859 32.8434 29.9908L32.7328 27.2513H32.2901L32.1795 29.9908C31.3358 28.3859 30.0909 27.2652 30.0909 27.2652L29.8419 27.4865C32.0273 29.548 32.0688 32.4673 32.0688 32.4673" fill="#00803B"/>
<path d="M17.1719 14.3567H18.8456C19.302 14.3567 19.6755 14.0523 19.6755 13.6649V12.2952C19.6755 11.9216 19.302 11.6034 18.8456 11.6034H17.1719C16.7155 11.6034 16.342 11.9078 16.342 12.2952V13.6649C16.342 14.0384 16.7155 14.3567 17.1719 14.3567Z" fill="#00803B"/>
<path d="M17.1719 19.1437H18.8456C19.302 19.1437 19.6755 18.8393 19.6755 18.452V17.0822C19.6755 16.7087 19.302 16.4043 18.8456 16.4043H17.1719C16.7155 16.4043 16.342 16.7087 16.342 17.0822V18.452C16.342 18.8255 16.7155 19.1437 17.1719 19.1437Z" fill="#00803B"/>
<path d="M17.1719 23.9308H18.8456C19.302 23.9308 19.6755 23.6265 19.6755 23.2529V21.8832C19.6755 21.5096 19.302 21.1914 18.8456 21.1914H17.1719C16.7155 21.1914 16.342 21.4958 16.342 21.8832V23.2529C16.342 23.6265 16.7155 23.9308 17.1719 23.9308Z" fill="#00803B"/>
<path d="M17.1719 28.7317H18.8456C19.302 28.7317 19.6755 28.4273 19.6755 28.0538V26.684C19.6755 26.3105 19.302 26.0061 18.8456 26.0061H17.1719C16.7155 26.0061 16.342 26.3105 16.342 26.684V28.0538C16.342 28.4273 16.7155 28.7317 17.1719 28.7317Z" fill="#00803B"/>
<path d="M12.6905 14.3567H14.3641C14.8206 14.3567 15.1941 14.0523 15.1941 13.6649V12.2952C15.1941 11.9216 14.8206 11.6034 14.3641 11.6034H12.6905C12.2341 11.6034 11.8606 11.9078 11.8606 12.2952V13.6649C11.8606 14.0384 12.2341 14.3567 12.6905 14.3567Z" fill="#00803B"/>
<path d="M12.6905 19.1437H14.3641C14.8206 19.1437 15.1941 18.8393 15.1941 18.452V17.0822C15.1941 16.7087 14.8206 16.4043 14.3641 16.4043H12.6905C12.2341 16.4043 11.8606 16.7087 11.8606 17.0822V18.452C11.8606 18.8255 12.2341 19.1437 12.6905 19.1437Z" fill="#00803B"/>
<path d="M12.6905 23.9308H14.3641C14.8206 23.9308 15.1941 23.6265 15.1941 23.2529V21.8832C15.1941 21.5096 14.8206 21.1914 14.3641 21.1914H12.6905C12.2341 21.1914 11.8606 21.4958 11.8606 21.8832V23.2529C11.8606 23.6265 12.2341 23.9308 12.6905 23.9308Z" fill="#00803B"/>
<path d="M12.6905 28.7317H14.3641C14.8206 28.7317 15.1941 28.4273 15.1941 28.0538V26.684C15.1941 26.3105 14.8206 26.0061 14.3641 26.0061H12.6905C12.2341 26.0061 11.8606 26.3105 11.8606 26.684V28.0538C11.8606 28.4273 12.2341 28.7317 12.6905 28.7317Z" fill="#00803B"/>
<path d="M33.6318 25.1068C33.7701 25.01 33.9084 24.9408 34.0467 24.8716C34.7245 24.3874 35.1671 23.6126 35.1671 22.7133C35.1671 21.2467 33.9775 20.0707 32.5114 20.0707C31.0452 20.0707 29.8695 21.2605 29.8695 22.7133C29.8695 23.5987 30.3121 24.3874 30.9899 24.8716C31.142 24.9408 31.2803 25.0238 31.4187 25.1206C31.7506 25.2728 32.1241 25.3697 32.5252 25.3697C32.9263 25.3697 33.2998 25.2728 33.6318 25.1206V25.1068Z" fill="#E30613"/>
<path d="M29.8834 29.9078C31.3219 29.9078 32.4837 28.7595 32.5252 27.3344C32.5252 27.3067 32.5252 27.2791 32.5252 27.2514C32.5252 27.2237 32.5252 27.196 32.5252 27.1684C32.4976 26.3106 32.0688 25.5635 31.4187 25.093C31.2665 25.0239 31.1282 24.9409 30.9899 24.844C30.658 24.6918 30.2845 24.595 29.8834 24.595C28.5694 24.595 27.4766 25.5635 27.2692 26.8225V27.6665C27.4766 28.9255 28.5555 29.894 29.8834 29.894V29.9078Z" fill="#E30613"/>
<path d="M31.4049 25.1068C31.2665 25.01 31.1282 24.927 30.9761 24.8578C31.1144 24.9546 31.2527 25.0377 31.4049 25.1068Z" fill="#E30613"/>
<path d="M35.1533 29.9078C36.6195 29.9078 37.7952 28.7179 37.7952 27.2513C37.7952 25.7848 36.6056 24.6088 35.1533 24.6088C34.7522 24.6088 34.3787 24.7056 34.0468 24.8578C33.9084 24.9547 33.7701 25.0238 33.6318 25.093C32.9817 25.5634 32.5529 26.3105 32.5253 27.1683C32.5253 27.196 32.5253 27.2237 32.5253 27.2513C32.5253 27.279 32.5253 27.3067 32.5253 27.3344C32.5668 28.7594 33.7286 29.9078 35.1671 29.9078H35.1533Z" fill="#E30613"/>
<path d="M34.0468 24.8578C33.8946 24.927 33.7563 25.01 33.6318 25.093C33.784 25.0238 33.9223 24.9408 34.0468 24.8578Z" fill="#E30613"/>
<path d="M6.16187 42H40.8381C41.4744 42 42 41.4743 42 40.8378V16.4043C42 15.7679 41.4744 15.2421 40.8381 15.2421H25.8168V7.16218C25.8168 6.52575 25.2912 6 24.655 6H6.16187C5.52561 6 5 6.52575 5 7.16218V40.8378C5 41.4743 5.52561 42 6.16187 42ZM39.6901 39.6756H25.8307V35.1514H39.6901V39.6756ZM25.8307 17.5527H39.6901V32.8271H25.8307V17.5527ZM17.1996 39.6756H14.046V35.1514H17.1996V39.6756ZM7.32374 8.32437H23.5069V39.6756H19.5095V33.9892C19.5095 33.3528 18.9839 32.8271 18.3477 32.8271H12.8703C12.234 32.8271 11.7084 33.3528 11.7084 33.9892V39.6756H7.32374V8.32437Z" fill="#E30613"/>
</g>
<defs>
<clipPath id="clip0_34_354">
<rect width="37" height="36" fill="white" transform="translate(5 6)"/>
</clipPath>
</defs>
</svg>
