<svg width="48" height="48" viewBox="0 0 48 48" fill="none" xmlns="http://www.w3.org/2000/svg">
<g clip-path="url(#clip0_34_359)">
<path d="M23.5387 42.4715H25.4751C25.4751 42.4715 25.5858 35.793 30.4684 31.0837L29.9151 30.5742C29.9151 30.5742 27.1488 33.1492 25.24 36.8258L25.0048 30.5742H24.009L23.7738 36.8258C21.8789 33.1492 19.0987 30.5742 19.0987 30.5742L18.5454 31.0837C23.428 35.7793 23.5387 42.4715 23.5387 42.4715Z" fill="#00803B"/>
<path d="M30.4407 20.1504C30.4407 23.4965 27.785 26.2092 24.5069 26.2092C21.2288 26.2092 18.5731 23.4965 18.5731 20.1504C18.5731 16.8042 21.2288 14.0916 24.5069 14.0916C27.785 14.0916 30.4407 16.8042 30.4407 20.1504Z" fill="#E30613"/>
<path d="M24.5207 30.5605C24.5207 33.9066 21.865 36.6193 18.5869 36.6193C15.3088 36.6193 12.6531 33.9066 12.6531 30.5605C12.6531 27.2144 15.3088 24.5017 18.5869 24.5017C21.865 24.5017 24.5207 27.2144 24.5207 30.5605Z" fill="#E30613"/>
<path d="M36.3608 30.5605C36.3608 33.9066 33.7051 36.6193 30.4269 36.6193C27.1488 36.6193 24.4931 33.9066 24.4931 30.5605C24.4931 27.2144 27.1488 24.5017 30.4269 24.5017C33.7051 24.5017 36.3608 27.2144 36.3608 30.5605Z" fill="#E30613"/>
<path d="M9.19515 18.6081C9.09832 18.8009 8.86318 18.8835 8.66954 18.7871C8.47589 18.6907 8.3929 18.4566 8.48973 18.2638C8.58655 18.0711 8.82169 17.9884 9.01533 18.0848C9.20898 18.1812 9.29197 18.4153 9.19515 18.6081Z" fill="#00803B"/>
<path d="M12.1275 14.6974C12.2658 14.8214 12.3073 14.9177 12.2935 15.0968C12.2796 15.2895 12.1551 15.5787 11.9615 15.8128C11.4912 16.3636 10.7581 16.5151 10.0112 15.8954C9.2643 15.2895 9.36113 14.5873 9.81758 14.0365C9.99739 13.8299 10.2325 13.6784 10.3847 13.6234C10.689 13.527 10.9241 14.0089 10.5783 14.1466C10.4815 14.1879 10.3708 14.2568 10.2879 14.3532C10.0389 14.6423 9.96973 15.0004 10.4262 15.3722C10.9103 15.7715 11.2837 15.6889 11.5465 15.3722C11.6157 15.3033 11.6572 15.1931 11.6572 15.1243L11.4221 14.9315C11.3529 14.8764 11.3252 14.8764 11.2561 14.9453L11.1593 15.0692C10.9656 15.2895 10.5368 14.9453 10.7305 14.7112L11.1039 14.2706C11.2561 14.0915 11.3944 14.0778 11.5742 14.2292L12.1275 14.6837V14.6974Z" fill="#00803B"/>
<path d="M11.3529 12.7284C11.2284 12.6045 11.2837 12.4254 11.3944 12.3153C11.5051 12.2051 11.6987 12.15 11.8232 12.274L13.4138 13.8713C13.5522 13.9952 13.483 14.188 13.3723 14.2982C13.2617 14.4083 13.068 14.4634 12.9436 14.3257L11.3529 12.7284Z" fill="#00803B"/>
<path d="M13.7735 10.594C13.649 10.2084 14.2991 9.98813 14.4097 10.3875L15.0045 12.4805C15.1567 12.99 14.6725 13.348 14.2299 13.0451L12.418 11.8608C12.0307 11.613 12.4733 11.0622 12.8191 11.2963L14.3267 12.3566L13.7596 10.594H13.7735Z" fill="#00803B"/>
<path d="M15.046 9.8642C14.9491 9.71273 15.046 9.54749 15.1843 9.46487C15.3226 9.38225 15.5162 9.36848 15.6131 9.51995L16.7749 11.4477C16.8718 11.5992 16.7749 11.7782 16.6228 11.8608C16.4845 11.9435 16.2908 11.9435 16.194 11.792L15.0321 9.8642H15.046Z" fill="#00803B"/>
<path d="M17.2037 9.53366L17.7847 10.952C17.8538 11.1172 17.7293 11.2687 17.591 11.3238C17.4527 11.3788 17.2729 11.3513 17.2037 11.1861L16.3877 9.23072C16.3047 9.03794 16.4015 8.83139 16.6228 8.735C16.8994 8.62484 17.0931 8.67992 17.3144 8.90024L18.3656 9.93299L17.7847 8.54222C17.7155 8.37698 17.84 8.23928 17.9783 8.17043C18.1305 8.11535 18.3241 8.12912 18.3794 8.29436L19.1955 10.2497C19.2785 10.4425 19.154 10.6628 18.9465 10.7454C18.6699 10.8556 18.4901 10.7867 18.2411 10.5526L17.2037 9.53366Z" fill="#00803B"/>
<path d="M22.197 9.32715C22.2247 9.50616 22.197 9.61632 22.0726 9.74025C21.9342 9.87795 21.6576 10.0294 21.3533 10.0845C20.634 10.2222 19.9701 9.86418 19.7903 8.91405C19.6105 7.97769 20.1361 7.49574 20.8415 7.35804C21.1182 7.30296 21.3948 7.34427 21.5469 7.39935C21.8374 7.52328 21.7129 8.03277 21.3533 7.92261C21.2565 7.89507 21.1182 7.86753 20.9937 7.89507C20.6202 7.96392 20.3297 8.18424 20.4404 8.77635C20.5511 9.38223 20.8969 9.56124 21.3118 9.47862C21.4086 9.46485 21.5193 9.40977 21.5608 9.36846L21.5055 9.06552C21.4916 8.96913 21.464 8.95536 21.3671 8.9829L21.215 9.01044C20.9245 9.06552 20.8139 8.51472 21.1182 8.45964L21.6853 8.34948C21.9204 8.30817 22.0311 8.39079 22.0726 8.62488L22.2109 9.32715H22.197Z" fill="#00803B"/>
<path d="M24.2994 7.26163C24.2994 7.08262 24.4792 7 24.6314 7C24.7835 7 24.9634 7.09639 24.9634 7.2754L24.9219 9.02419C24.9219 9.13435 24.9495 9.14812 25.0602 9.14812H25.8209C25.9869 9.17566 26.0699 9.32713 26.0699 9.46483C26.0699 9.60253 25.9869 9.74023 25.8209 9.74023L24.7559 9.71269C24.3548 9.71269 24.2579 9.58876 24.2579 9.2032L24.3133 7.24786L24.2994 7.26163Z" fill="#00803B"/>
<path d="M27.3701 7.66094C27.4531 7.31669 27.6191 7.24784 27.9649 7.33046L28.9469 7.56455C29.1267 7.60586 29.182 7.7711 29.1544 7.9088C29.1267 8.0465 29.0022 8.17043 28.8086 8.12912L28.1032 7.96388C28.0063 7.93634 27.9649 7.96388 27.951 8.06027L27.8819 8.33567L28.6149 8.51468C28.7809 8.55599 28.8224 8.72123 28.7809 8.84516C28.7533 8.98286 28.6426 9.09302 28.4766 9.06548L27.7435 8.88647L27.6467 9.29957C27.6191 9.39596 27.6467 9.43727 27.7435 9.45104L28.4905 9.63005C28.6564 9.67136 28.7118 9.8366 28.6703 9.9743C28.6426 10.112 28.5181 10.2359 28.3521 10.1946L27.3148 9.94676C26.9413 9.86414 26.8721 9.72644 26.9551 9.38219L27.3701 7.66094Z" fill="#00803B"/>
<path d="M30.9526 8.40457C31.0909 8.2531 31.2569 8.2531 31.409 8.30818C31.5612 8.37703 31.6718 8.48719 31.6718 8.70751L31.6165 10.9658C31.6165 10.9658 31.6026 11.0484 31.5888 11.076C31.5197 11.2274 31.2983 11.255 31.1185 11.1861C30.9802 11.131 30.8972 11.0209 30.9111 10.8694L30.9387 10.4701L30.1641 10.1534L29.9152 10.4563C29.8045 10.5802 29.6524 10.594 29.5417 10.5389C29.3896 10.4701 29.2651 10.3048 29.3342 10.1396C29.3342 10.1121 29.3619 10.0845 29.4034 10.0432L30.9664 8.3908L30.9526 8.40457ZM30.5376 9.71272L30.9802 9.89173L31.0494 9.10684L30.5376 9.71272Z" fill="#00803B"/>
<path d="M33.3316 9.6989C33.5252 9.40973 33.705 9.39596 34.0093 9.58874L34.3966 9.8366C35.0329 10.2635 35.1574 10.8831 34.6733 11.5854C34.203 12.2877 33.6082 12.5493 32.9305 12.1087L32.5017 11.8195C32.1835 11.6129 32.1559 11.4477 32.3634 11.1448L33.3454 9.6989H33.3316ZM33.2071 11.6129C33.5391 11.8195 33.8295 11.6956 34.1338 11.2274C34.4105 10.8143 34.369 10.4838 34.0508 10.2772L33.9263 10.1946C33.8572 10.1395 33.8157 10.1671 33.7604 10.2359L33.0273 11.3238C32.972 11.4064 32.9858 11.4477 33.0549 11.489L33.2071 11.5992V11.6129Z" fill="#00803B"/>
<path d="M36.0288 11.5441C36.2639 11.2825 36.4438 11.2963 36.7066 11.5441L37.4535 12.2189C37.5918 12.3428 37.5641 12.5218 37.4673 12.6182C37.3705 12.7146 37.2045 12.7697 37.0662 12.6457L36.5267 12.1638C36.4576 12.1087 36.4161 12.1087 36.3331 12.1638L36.1395 12.3841L36.6927 12.8798C36.8172 12.99 36.7757 13.1552 36.6927 13.2516C36.5959 13.348 36.4438 13.4031 36.3193 13.2929L35.7522 12.7972L35.4617 13.1139C35.3925 13.1965 35.3925 13.2241 35.4617 13.2929L36.0288 13.8024C36.1533 13.9126 36.1118 14.0916 36.0288 14.188C35.932 14.2981 35.7798 14.3394 35.6553 14.2293L34.8531 13.527C34.5626 13.2654 34.5626 13.1277 34.8116 12.8523L36.0011 11.5441H36.0288Z" fill="#00803B"/>
<path d="M38.2695 13.5958C38.5323 13.4031 38.7121 13.4581 38.9196 13.7198L39.1962 14.0916C39.5559 14.5597 39.5697 15.0555 39.1133 15.3997C38.8366 15.6063 38.5461 15.6338 38.2833 15.5374L38.0205 16.2948C37.8822 16.6803 37.2598 16.4462 37.4119 16.0882L37.8131 15.1381L37.6194 14.8902L37.0108 15.3446C36.8587 15.4548 36.6927 15.3722 36.582 15.2482C36.4852 15.1243 36.4575 14.9453 36.6097 14.8351L38.2557 13.6096L38.2695 13.5958ZM38.062 14.5597L38.2004 14.7525C38.3802 14.9866 38.5323 15.0142 38.6983 14.8765C38.8643 14.7525 38.8781 14.6011 38.6983 14.367L38.6153 14.2568C38.6153 14.2568 38.5323 14.188 38.477 14.2293L38.0482 14.546L38.062 14.5597Z" fill="#00803B"/>
<path d="M39.5559 18.1124C39.4591 17.9196 39.5421 17.6855 39.7357 17.5891C39.9293 17.4927 40.1645 17.5753 40.2613 17.7681C40.3581 17.9609 40.2751 18.195 40.0815 18.2914C39.8878 18.3878 39.6527 18.2914 39.5559 18.1124Z" fill="#00803B"/>
<path d="M24.5069 44C14.2991 44 6 35.6691 6 25.4243C6 24.0335 6.15215 22.6427 6.45645 21.2933C6.58093 20.7287 7.13421 20.3844 7.71514 20.5084C8.28224 20.6323 8.64187 21.1831 8.51738 21.7477C8.24075 22.9457 8.10243 24.185 8.10243 25.4243C8.10243 34.5262 15.4609 41.9345 24.5069 41.9345C33.5529 41.9345 40.9114 34.5262 40.9114 25.4243C40.9114 24.2263 40.7869 23.0145 40.5241 21.8578C40.3996 21.2933 40.7593 20.7425 41.3264 20.6185C41.8935 20.4946 42.4467 20.8526 42.5712 21.4172C42.8617 22.7253 43 24.061 43 25.4243C43 35.6691 34.7009 44.0138 24.4931 44.0138L24.5069 44Z" fill="#E30613"/>
</g>
<defs>
<clipPath id="clip0_34_359">
<rect width="37" height="37" fill="white" transform="translate(6 7)"/>
</clipPath>
</defs>
</svg>
