<svg width="48" height="48" viewBox="0 0 48 48" fill="none" xmlns="http://www.w3.org/2000/svg">
<g clip-path="url(#clip0_34_386)">
<path d="M25.0325 26.9755H26.554C26.554 26.9755 26.637 21.769 30.4822 18.1176L30.0396 17.7255C30.0396 17.7255 27.8542 19.7269 26.3604 22.5939L26.1667 17.7255H25.3783L25.1847 22.5939C23.6908 19.7269 21.5054 17.7255 21.5054 17.7255L21.0628 18.1176C24.908 21.769 24.991 26.9755 24.991 26.9755" fill="#00803B"/>
<path d="M30.4684 9.58444C30.5514 15.7105 21.0352 15.7105 21.1182 9.58444C21.0352 3.45834 30.5514 3.45834 30.4684 9.58444Z" fill="#E30613"/>
<path d="M25.8071 17.6985C25.8901 23.8246 16.3738 23.8246 16.4568 17.6985C16.3738 11.5724 25.8901 11.5724 25.8071 17.6985Z" fill="#E30613"/>
<path d="M35.1298 17.6985C35.2127 23.8246 25.6965 23.8246 25.7795 17.6985C25.6965 11.5724 35.2127 11.5724 35.1298 17.6985Z" fill="#E30613"/>
<path d="M42.5435 31.7763L42.4191 31.6545C40.7731 30.0588 38.311 29.5179 36.1256 30.3022L31.6856 31.8844C31.5888 31.2353 31.2845 30.6403 30.8142 30.167C30.2333 29.599 29.4172 29.2609 28.5873 29.2609H24.4931C22.8609 27.6652 20.6202 26.7591 18.3103 26.7591H13.6213C13.2479 25.3391 11.9477 24.2843 10.3985 24.2843H7.25869C6.5671 24.2843 6 24.8388 6 25.5149V39.8227C6 40.4988 6.5671 41.0533 7.25869 41.0533H10.3985C11.92 41.0533 13.2064 40.0391 13.5936 38.6597L20.4542 41.2562C21.7129 41.743 23.0546 41.9864 24.4101 41.9864C26.1806 41.9864 27.951 41.5537 29.5278 40.7423L42.1701 34.1969C42.6127 33.967 42.9032 33.5478 42.9723 33.0745C43.0415 32.6012 42.8893 32.1143 42.5297 31.7627L42.5435 31.7763ZM8.50355 26.7456H10.3847C10.8411 26.7456 11.2284 27.1107 11.2284 27.5705V27.9897V37.7671C11.2284 38.2134 10.855 38.592 10.3985 38.592H8.51738V26.732L8.50355 26.7456ZM13.732 29.2203H18.3103C20.1084 29.2203 21.8236 29.9777 23.0131 31.3029C23.2482 31.5734 23.594 31.7222 23.9536 31.7222H28.6011C28.7671 31.7222 28.9331 31.7898 29.0576 31.9115C29.1821 32.0332 29.2512 32.182 29.2512 32.3578C29.2512 32.5336 29.1821 32.6823 29.0576 32.804C28.9331 32.9257 28.7671 32.9934 28.6011 32.9934H19.8041C19.0849 32.9934 18.5454 33.5208 18.5454 34.224C18.5454 34.9272 19.0849 35.4411 19.8041 35.4411H28.6011C29.1544 35.4411 29.6938 35.2788 30.1641 35.0219C30.2333 35.0219 30.3024 35.0219 30.3854 34.9948L37.0108 32.6282C37.9099 32.3037 38.8781 32.3578 39.708 32.7499L28.3798 38.6191C26.2221 39.7415 23.6632 39.8903 21.3809 39.0248L13.7458 36.1308V29.2609L13.732 29.2203Z" fill="#E30613"/>
</g>
<defs>
<clipPath id="clip0_34_386">
<rect width="37" height="37" fill="white" transform="translate(6 5)"/>
</clipPath>
</defs>
</svg>
