<svg width="48" height="48" viewBox="0 0 48 48" fill="none" xmlns="http://www.w3.org/2000/svg">
<g clip-path="url(#clip0_34_293)">
<path d="M24.092 28.1457H24.9219C24.9219 28.1457 24.9634 25.3373 27.052 23.3533L26.8168 23.1437C26.8168 23.1437 25.6411 24.2335 24.8251 25.7704L24.7282 23.1437H24.2994L24.2026 25.7704C23.4004 24.2195 22.2108 23.1437 22.2108 23.1437L21.9757 23.3533C24.0505 25.3373 24.1058 28.1457 24.1058 28.1457" fill="#00803B"/>
<path d="M15.8482 27.7406H16.8165C17.0793 27.7406 17.3006 27.5589 17.3006 27.3354V26.539C17.3006 26.3154 17.0793 26.1338 16.8165 26.1338H15.8482C15.5854 26.1338 15.3641 26.3154 15.3641 26.539V27.3354C15.3641 27.5589 15.5854 27.7406 15.8482 27.7406Z" fill="#00803B"/>
<path d="M13.6075 27.7406H14.5757C14.8385 27.7406 15.0598 27.5589 15.0598 27.3354V26.539C15.0598 26.3154 14.8385 26.1338 14.5757 26.1338H13.6075C13.3447 26.1338 13.1234 26.3154 13.1234 26.539V27.3354C13.1234 27.5589 13.3447 27.7406 13.6075 27.7406Z" fill="#00803B"/>
<path d="M15.8482 25.8403H16.8165C17.0793 25.8403 17.3006 25.6587 17.3006 25.4351V24.6387C17.3006 24.4152 17.0793 24.2335 16.8165 24.2335H15.8482C15.5854 24.2335 15.3641 24.4152 15.3641 24.6387V25.4351C15.3641 25.6587 15.5854 25.8403 15.8482 25.8403Z" fill="#00803B"/>
<path d="M13.6075 25.8403H14.5757C14.8385 25.8403 15.0598 25.6587 15.0598 25.4351V24.6387C15.0598 24.4152 14.8385 24.2335 14.5757 24.2335H13.6075C13.3447 24.2335 13.1234 24.4152 13.1234 24.6387V25.4351C13.1234 25.6587 13.3447 25.8403 13.6075 25.8403Z" fill="#00803B"/>
<path d="M34.4243 27.7406H35.3925C35.6553 27.7406 35.8766 27.5589 35.8766 27.3354V26.539C35.8766 26.3154 35.6553 26.1338 35.3925 26.1338H34.4243C34.1615 26.1338 33.9402 26.3154 33.9402 26.539V27.3354C33.9402 27.5589 34.1615 27.7406 34.4243 27.7406Z" fill="#00803B"/>
<path d="M32.1836 27.7406H33.1518C33.4146 27.7406 33.6359 27.5589 33.6359 27.3354V26.539C33.6359 26.3154 33.4146 26.1338 33.1518 26.1338H32.1836C31.9208 26.1338 31.6995 26.3154 31.6995 26.539V27.3354C31.6995 27.5589 31.9208 27.7406 32.1836 27.7406Z" fill="#00803B"/>
<path d="M34.4243 25.8403H35.3925C35.6553 25.8403 35.8766 25.6587 35.8766 25.4351V24.6387C35.8766 24.4152 35.6553 24.2335 35.3925 24.2335H34.4243C34.1615 24.2335 33.9402 24.4152 33.9402 24.6387V25.4351C33.9402 25.6587 34.1615 25.8403 34.4243 25.8403Z" fill="#00803B"/>
<path d="M32.1836 25.8403H33.1518C33.4146 25.8403 33.6359 25.6587 33.6359 25.4351V24.6387C33.6359 24.4152 33.4146 24.2335 33.1518 24.2335H32.1836C31.9208 24.2335 31.6995 24.4152 31.6995 24.6387V25.4351C31.6995 25.6587 31.9208 25.8403 32.1836 25.8403Z" fill="#00803B"/>
<path d="M24.5069 21.2994C24.8804 21.2994 25.24 21.2156 25.5581 21.0619C25.6826 20.978 25.8209 20.8942 25.9593 20.8243C26.6094 20.3633 27.0243 19.6088 27.0243 18.7565C27.0243 17.3453 25.8901 16.1996 24.5069 16.1996C23.1237 16.1996 21.9757 17.3453 21.9757 18.7565C21.9757 19.6088 22.4045 20.3633 23.0408 20.8243C23.1791 20.8942 23.3174 20.9641 23.4419 21.0619C23.76 21.2156 24.1196 21.2994 24.4931 21.2994H24.5069Z" fill="#E30613"/>
<path d="M21.9896 25.6727C23.3589 25.6727 24.4654 24.5689 24.5069 23.1996C24.5069 23.1717 24.5069 23.1437 24.5069 23.1298C24.5069 23.1018 24.5069 23.0739 24.5069 23.0459C24.4793 22.2216 24.0781 21.495 23.4557 21.0479C23.3174 20.9781 23.1791 20.9082 23.0546 20.8104C22.7365 20.6567 22.3768 20.5729 21.9896 20.5729C20.5925 20.5729 19.4722 21.7186 19.4722 23.1298C19.4722 24.5409 20.6064 25.6727 21.9896 25.6727Z" fill="#E30613"/>
<path d="M23.0408 20.8243C23.1653 20.9082 23.3036 20.992 23.4419 21.0619C23.3174 20.978 23.1791 20.8942 23.0408 20.8243Z" fill="#E30613"/>
<path d="M24.5069 23.0459C24.5069 23.0459 24.5069 23.1018 24.5069 23.1298C24.5069 23.1577 24.5069 23.1857 24.5069 23.1996C24.5484 24.5689 25.6549 25.6727 27.0243 25.6727C28.3936 25.6727 29.5555 24.527 29.5555 23.1298C29.5555 21.7326 28.4213 20.5729 27.0243 20.5729C26.6508 20.5729 26.2912 20.6567 25.9592 20.8104C25.8347 20.8942 25.6964 20.9781 25.5581 21.0479C24.9357 21.495 24.5207 22.2216 24.5069 23.0459Z" fill="#E30613"/>
<path d="M25.9592 20.8243C25.8209 20.8942 25.6826 20.9641 25.5581 21.0619C25.6964 20.992 25.8347 20.9221 25.9592 20.8243Z" fill="#E30613"/>
<path d="M7.82579 23.996L8.87701 23.4232V37.5908C8.87701 39.4771 10.3985 41.0279 12.2658 41.0279H36.7342C38.6015 41.0279 40.123 39.491 40.123 37.5908V23.4232L41.1742 23.996C41.6445 24.2475 42.2531 24.1637 42.6404 23.7864C42.8755 23.5489 43 23.2415 43 22.9062C43 22.5709 42.8755 22.2635 42.6404 22.0259L28.3245 7.5509C26.2912 5.48303 22.7088 5.48303 20.6755 7.5509L6.35963 22.012C6.12449 22.2495 6 22.5569 6 22.8922C6 23.2275 6.12449 23.5349 6.35963 23.7725C6.74692 24.1637 7.35551 24.2475 7.82579 23.996ZM27.868 38.513H21.132V31.485C21.132 30.8144 21.6714 30.2695 22.3353 30.2695H26.6508C27.3148 30.2695 27.8542 30.8144 27.8542 31.485V38.513H27.868ZM11.3529 20.503L22.4321 9.31138C23.5387 8.19361 25.4751 8.19361 26.5817 9.31138L37.6609 20.503V37.5768C37.6609 38.0938 37.246 38.513 36.7342 38.513H30.3439V31.485C30.3439 29.4311 28.6979 27.7685 26.6647 27.7685H22.3492C20.3159 27.7685 18.6699 29.4451 18.6699 31.485V38.513H12.2796C11.7679 38.513 11.3529 38.0938 11.3529 37.5768V20.503Z" fill="#E30613"/>
</g>
<defs>
<clipPath id="clip0_34_293">
<rect width="37" height="35" fill="white" transform="translate(6 6)"/>
</clipPath>
</defs>
</svg>
